<?xml version="1.0" encoding="UTF-8" standalone="no"?>
<!-- Created with Inkscape (http://www.inkscape.org/) -->

<svg
   xmlns:dc="http://purl.org/dc/elements/1.1/"
   xmlns:cc="http://creativecommons.org/ns#"
   xmlns:rdf="http://www.w3.org/1999/02/22-rdf-syntax-ns#"
   xmlns:svg="http://www.w3.org/2000/svg"
   xmlns="http://www.w3.org/2000/svg"
   xmlns:sodipodi="http://sodipodi.sourceforge.net/DTD/sodipodi-0.dtd"
   xmlns:inkscape="http://www.inkscape.org/namespaces/inkscape"
   width="210mm"
   height="297mm"
   viewBox="0 0 210 297"
   version="1.1"
   id="svg8"
   inkscape:version="0.92.4 (5da689c313, 2019-01-14)"
   sodipodi:docname="box.svg">
  <defs
     id="defs2" />
  <sodipodi:namedview
     id="base"
     pagecolor="#ffffff"
     bordercolor="#666666"
     borderopacity="1.0"
     inkscape:pageopacity="0.0"
     inkscape:pageshadow="2"
     inkscape:zoom="0.7"
     inkscape:cx="592.27341"
     inkscape:cy="713.61539"
     inkscape:document-units="mm"
     inkscape:current-layer="layer1"
     showgrid="false"
     inkscape:window-width="2560"
     inkscape:window-height="1315"
     inkscape:window-x="-13"
     inkscape:window-y="-13"
     inkscape:window-maximized="1"
     showborder="true" />
  <metadata
     id="metadata5">
    <rdf:RDF>
      <cc:Work
         rdf:about="">
        <dc:format>image/svg+xml</dc:format>
        <dc:type
           rdf:resource="http://purl.org/dc/dcmitype/StillImage" />
        <dc:title></dc:title>
      </cc:Work>
    </rdf:RDF>
  </metadata>
  <g
     inkscape:label="Layer 1"
     inkscape:groupmode="layer"
     id="layer1">
    <path
       id="path1671"
       inkscape:label="part"
       style="stroke:#000000;stroke-width:1;fill:none"
       d="M 50.1999998093,181.499999523 L 66.1231816085,181.499999523 L 66.1231816085,178.399999619 L 82.3313634125,178.399999619 L 82.3313634125,181.499999523 L 98.1595452102,181.499999523 L 98.1595452102,178.399999619 L 114.367727014,178.399999619 L 114.367727014,181.499999523 L 130.195908812,181.499999523 L 130.195908812,178.399999619 L 146.404090616,178.399999619 L 146.404090616,181.499999523 L 162.232272414,181.499999523 L 162.232272414,178.399999619 L 178.440454218,178.399999619 L 178.440454218,181.499999523 L 194.268636015,181.499999523 L 194.268636015,178.399999619 L 210.476817819,178.399999619 L 210.476817819,181.499999523 L 226.399999619,181.499999523 " />
    <path
       id="path1673"
       inkscape:label="part"
       style="stroke:#000000;stroke-width:1;fill:none"
       d="M 226.399999619,181.499999523 L 226.399999619,193.894999557 L 223.299999714,193.894999557 L 223.299999714,209.10499949 L 226.399999619,209.10499949 L 226.399999619,221.499999523 " />
    <path
       id="path1675"
       inkscape:label="part"
       style="stroke:#000000;stroke-width:1;fill:none"
       d="M 226.399999619,221.499999523 L 210.476817819,221.499999523 L 210.476817819,224.599999428 L 194.268636015,224.599999428 L 194.268636015,221.499999523 L 178.440454218,221.499999523 L 178.440454218,224.599999428 L 162.232272414,224.599999428 L 162.232272414,221.499999523 L 146.404090616,221.499999523 L 146.404090616,224.599999428 L 130.195908812,224.599999428 L 130.195908812,221.499999523 L 114.367727014,221.499999523 L 114.367727014,224.599999428 L 98.1595452102,224.599999428 L 98.1595452102,221.499999523 L 82.3313634125,221.499999523 L 82.3313634125,224.599999428 L 66.1231816085,224.599999428 L 66.1231816085,221.499999523 L 50.1999998093,221.499999523 " />
    <path
       id="path1677"
       inkscape:label="part"
       style="stroke:#000000;stroke-width:1;fill:none"
       d="M 50.1999998093,221.499999523 L 50.1999998093,209.10499949 L 53.2999997139,209.10499949 L 53.2999997139,193.894999557 L 50.1999998093,193.894999557 L 50.1999998093,181.499999523 " />
    <g
       id="g1827">
      <path
         d="M 5.09999990463,53.2999997139 L 17.3049999348,53.2999997139 L 17.3049999348,50.1999998093 L 32.8949998744,50.1999998093 L 32.8949998744,53.2999997139 L 45.0999999046,53.2999997139 "
         style="stroke:#000000;stroke-width:1;fill:none"
         inkscape:label="part"
         id="path1679" />
      <path
         d="M 45.0999999046,53.2999997139 L 45.0999999046,68.133571209 L 48.1999998093,68.133571209 L 48.1999998093,86.3521426135 L 45.0999999046,86.3521426135 L 45.0999999046,104.190714012 L 48.1999998093,104.190714012 L 48.1999998093,122.409285416 L 45.0999999046,122.409285416 L 45.0999999046,140.247856814 L 48.1999998093,140.247856814 L 48.1999998093,158.466428219 L 45.0999999046,158.466428219 L 45.0999999046,173.299999714 "
         style="stroke:#000000;stroke-width:1;fill:none"
         inkscape:label="part"
         id="path1681" />
      <path
         d="M 45.0999999046,173.299999714 L 32.8949998744,173.299999714 L 32.8949998744,176.399999619 L 17.3049999348,176.399999619 L 17.3049999348,173.299999714 L 5.09999990463,173.299999714 "
         style="stroke:#000000;stroke-width:1;fill:none"
         inkscape:label="part"
         id="path1683" />
      <path
         d="M 5.09999990463,173.299999714 L 5.09999990463,158.466428219 L 2.0,158.466428219 L 2.0,140.247856814 L 5.09999990463,140.247856814 L 5.09999990463,122.409285416 L 2.0,122.409285416 L 2.0,104.190714012 L 5.09999990463,104.190714012 L 5.09999990463,86.3521426135 L 2.0,86.3521426135 L 2.0,68.133571209 L 5.09999990463,68.133571209 L 5.09999990463,53.2999997139 "
         style="stroke:#000000;stroke-width:1;fill:none"
         inkscape:label="part"
         id="path1685" />
    </g>
    <g
       id="g1815">
      <path
         d="M 50.1999998093,50.1999998093 L 66.3131816117,50.1999998093 L 66.3131816117,53.2999997139 L 82.1413634093,53.2999997139 L 82.1413634093,50.1999998093 L 98.3495452134,50.1999998093 L 98.3495452134,53.2999997139 L 114.177727011,53.2999997139 L 114.177727011,50.1999998093 L 130.385908815,50.1999998093 L 130.385908815,53.2999997139 L 146.214090613,53.2999997139 L 146.214090613,50.1999998093 L 162.422272417,50.1999998093 L 162.422272417,53.2999997139 L 178.250454214,53.2999997139 L 178.250454214,50.1999998093 L 194.458636018,50.1999998093 L 194.458636018,53.2999997139 L 210.286817816,53.2999997139 L 210.286817816,50.1999998093 L 226.399999619,50.1999998093 "
         style="stroke:#000000;stroke-width:1;fill:none"
         inkscape:label="part"
         id="path1687" />
      <path
         d="M 226.399999619,50.1999998093 L 226.399999619,68.3235712122 L 223.299999714,68.3235712122 L 223.299999714,86.1621426103 L 226.399999619,86.1621426103 L 226.399999619,104.380714015 L 223.299999714,104.380714015 L 223.299999714,122.219285413 L 226.399999619,122.219285413 L 226.399999619,140.437856817 L 223.299999714,140.437856817 L 223.299999714,158.276428216 L 226.399999619,158.276428216 L 226.399999619,176.399999619 "
         style="stroke:#000000;stroke-width:1;fill:none"
         inkscape:label="part"
         id="path1689" />
      <path
         d="M 226.399999619,176.399999619 L 210.286817816,176.399999619 L 210.286817816,173.299999714 L 194.458636018,173.299999714 L 194.458636018,176.399999619 L 178.250454214,176.399999619 L 178.250454214,173.299999714 L 162.422272417,173.299999714 L 162.422272417,176.399999619 L 146.214090613,176.399999619 L 146.214090613,173.299999714 L 130.385908815,173.299999714 L 130.385908815,176.399999619 L 114.177727011,176.399999619 L 114.177727011,173.299999714 L 98.3495452134,173.299999714 L 98.3495452134,176.399999619 L 82.1413634093,176.399999619 L 82.1413634093,173.299999714 L 66.3131816117,173.299999714 L 66.3131816117,176.399999619 L 50.1999998093,176.399999619 "
         style="stroke:#000000;stroke-width:1;fill:none"
         inkscape:label="part"
         id="path1691" />
      <path
         d="M 50.1999998093,176.399999619 L 50.1999998093,158.276428216 L 53.2999997139,158.276428216 L 53.2999997139,140.437856817 L 50.1999998093,140.437856817 L 50.1999998093,122.219285413 L 53.2999997139,122.219285413 L 53.2999997139,104.380714015 L 50.1999998093,104.380714015 L 50.1999998093,86.1621426103 L 53.2999997139,86.1621426103 L 53.2999997139,68.3235712122 L 50.1999998093,68.3235712122 L 50.1999998093,50.1999998093 "
         style="stroke:#000000;stroke-width:1;fill:none"
         inkscape:label="part"
         id="path1693" />
    </g>
    <g
       id="g1809">
      <path
         d="M 231.499999523,53.2999997139 L 243.704999553,53.2999997139 L 243.704999553,50.1999998093 L 259.294999493,50.1999998093 L 259.294999493,53.2999997139 L 271.499999523,53.2999997139 "
         style="stroke:#000000;stroke-width:1;fill:none"
         inkscape:label="part"
         id="path1695" />
      <path
         d="M 271.499999523,53.2999997139 L 271.499999523,68.133571209 L 274.599999428,68.133571209 L 274.599999428,86.3521426135 L 271.499999523,86.3521426135 L 271.499999523,104.190714012 L 274.599999428,104.190714012 L 274.599999428,122.409285416 L 271.499999523,122.409285416 L 271.499999523,140.247856814 L 274.599999428,140.247856814 L 274.599999428,158.466428219 L 271.499999523,158.466428219 L 271.499999523,173.299999714 "
         style="stroke:#000000;stroke-width:1;fill:none"
         inkscape:label="part"
         id="path1697" />
      <path
         d="M 271.499999523,173.299999714 L 259.294999493,173.299999714 L 259.294999493,176.399999619 L 243.704999553,176.399999619 L 243.704999553,173.299999714 L 231.499999523,173.299999714 "
         style="stroke:#000000;stroke-width:1;fill:none"
         inkscape:label="part"
         id="path1699" />
      <path
         d="M 231.499999523,173.299999714 L 231.499999523,158.466428219 L 228.399999619,158.466428219 L 228.399999619,140.247856814 L 231.499999523,140.247856814 L 231.499999523,122.409285416 L 228.399999619,122.409285416 L 228.399999619,104.190714012 L 231.499999523,104.190714012 L 231.499999523,86.3521426135 L 228.399999619,86.3521426135 L 228.399999619,68.133571209 L 231.499999523,68.133571209 L 231.499999523,53.2999997139 "
         style="stroke:#000000;stroke-width:1;fill:none"
         inkscape:label="part"
         id="path1701" />
    </g>
    <g
       id="g1803">
      <g
         id="g1754">
        <path
           id="path1703"
           inkscape:label="part"
           style="fill:none;stroke:#000000;stroke-width:1"
           d="m 276.6,50.2 h 16.11318 v 3.1 h 15.82818 v -8.391667 h 16.20818 V 53.3 h 15.82819 v -8.391667 h 16.20818 V 53.3 h 15.82818 v -8.391667 h 16.20818 V 53.3 h 15.82818 v -8.391667 h 16.20819 V 53.3 h 15.82818 V 50.2 H 452.8"
           inkscape:connector-curvature="0"
           sodipodi:nodetypes="cccccccccccccccccccccc" />
        <path
           id="path1705"
           inkscape:label="part"
           style="stroke:#000000;stroke-width:1;fill:none"
           d="M 452.799999237,50.1999998093 L 452.799999237,68.3235712122 L 449.699999332,68.3235712122 L 449.699999332,86.1621426103 L 452.799999237,86.1621426103 L 452.799999237,104.380714015 L 449.699999332,104.380714015 L 449.699999332,122.219285413 L 452.799999237,122.219285413 L 452.799999237,140.437856817 L 449.699999332,140.437856817 L 449.699999332,158.276428216 L 452.799999237,158.276428216 L 452.799999237,176.399999619 " />
        <path
           id="path1707"
           inkscape:label="part"
           style="stroke:#000000;stroke-width:1;fill:none"
           d="M 452.799999237,176.399999619 L 436.686817435,176.399999619 L 436.686817435,173.299999714 L 420.858635637,173.299999714 L 420.858635637,176.399999619 L 404.650453833,176.399999619 L 404.650453833,173.299999714 L 388.822272035,173.299999714 L 388.822272035,176.399999619 L 372.614090231,176.399999619 L 372.614090231,173.299999714 L 356.785908434,173.299999714 L 356.785908434,176.399999619 L 340.57772663,176.399999619 L 340.57772663,173.299999714 L 324.749544832,173.299999714 L 324.749544832,176.399999619 L 308.541363028,176.399999619 L 308.541363028,173.299999714 L 292.71318123,173.299999714 L 292.71318123,176.399999619 L 276.599999428,176.399999619 " />
      </g>
      <path
         d="M 276.599999428,176.399999619 L 276.599999428,158.276428216 L 279.699999332,158.276428216 L 279.699999332,140.437856817 L 276.599999428,140.437856817 L 276.599999428,122.219285413 L 279.699999332,122.219285413 L 279.699999332,104.380714015 L 276.599999428,104.380714015 L 276.599999428,86.1621426103 L 279.699999332,86.1621426103 L 279.699999332,68.3235712122 L 276.599999428,68.3235712122 L 276.599999428,50.1999998093 "
         style="stroke:#000000;stroke-width:1;fill:none"
         inkscape:label="part"
         id="path1709" />
    </g>
    <g
       id="g1821">
      <path
         d="M 50.1999998093,5.09999990463 L 66.1231816085,5.09999990463 L 66.1231816085,2.0 L 82.3313634125,2.0 L 82.3313634125,5.09999990463 L 98.1595452102,5.09999990463 L 98.1595452102,2.0 L 114.367727014,2.0 L 114.367727014,5.09999990463 L 130.195908812,5.09999990463 L 130.195908812,2.0 L 146.404090616,2.0 L 146.404090616,5.09999990463 L 162.232272414,5.09999990463 L 162.232272414,2.0 L 178.440454218,2.0 L 178.440454218,5.09999990463 L 194.268636015,5.09999990463 L 194.268636015,2.0 L 210.476817819,2.0 L 210.476817819,5.09999990463 L 226.399999619,5.09999990463 "
         style="stroke:#000000;stroke-width:1;fill:none"
         inkscape:label="part"
         id="path1711" />
      <path
         d="M 226.399999619,5.09999990463 L 226.399999619,17.494999938 L 223.299999714,17.494999938 L 223.299999714,32.7049998712 L 226.399999619,32.7049998712 L 226.399999619,45.0999999046 "
         style="stroke:#000000;stroke-width:1;fill:none"
         inkscape:label="part"
         id="path1713" />
      <path
         d="M 226.399999619,45.0999999046 L 210.476817819,45.0999999046 L 210.476817819,48.1999998093 L 194.268636015,48.1999998093 L 194.268636015,45.0999999046 L 178.440454218,45.0999999046 L 178.440454218,48.1999998093 L 162.232272414,48.1999998093 L 162.232272414,45.0999999046 L 146.404090616,45.0999999046 L 146.404090616,48.1999998093 L 130.195908812,48.1999998093 L 130.195908812,45.0999999046 L 114.367727014,45.0999999046 L 114.367727014,48.1999998093 L 98.1595452102,48.1999998093 L 98.1595452102,45.0999999046 L 82.3313634125,45.0999999046 L 82.3313634125,48.1999998093 L 66.1231816085,48.1999998093 L 66.1231816085,45.0999999046 L 50.1999998093,45.0999999046 "
         style="stroke:#000000;stroke-width:1;fill:none"
         inkscape:label="part"
         id="path1715" />
      <path
         d="M 50.1999998093,45.0999999046 L 50.1999998093,32.7049998712 L 53.2999997139,32.7049998712 L 53.2999997139,17.494999938 L 50.1999998093,17.494999938 L 50.1999998093,5.09999990463 "
         style="stroke:#000000;stroke-width:1;fill:none"
         inkscape:label="part"
         id="path1717" />
    </g>
    <g
       aria-label="Jólafur"
       transform="scale(0.98667618,1.0135037)"
       style="font-style:normal;font-weight:normal;font-size:40.02463531px;line-height:1.25;font-family:sans-serif;letter-spacing:0px;word-spacing:0px;fill:#000000;fill-opacity:1;stroke:none;stroke-width:1.00061584"
       id="text2437">
      <path
         d="m 315.70865,156.34207 q 0,3.83048 -2.34519,5.90207 -2.32565,2.07159 -6.25385,2.07159 -0.93808,0 -2.50154,-0.17589 -1.56346,-0.15635 -2.6188,-0.39087 v -3.6155 h 0.21497 q 0.80128,0.2736 1.97388,0.56675 1.17259,0.29315 2.40382,0.29315 1.79798,0 2.85332,-0.41041 1.07488,-0.41041 1.583,-1.17259 0.52767,-0.78174 0.66447,-1.91525 0.15635,-1.13351 0.15635,-2.6188 v -16.98311 h -6.15613 v -3.08783 h 10.0257 z"
         style="stroke-width:1.00061584"
         id="path2439" />
      <path
         d="m 341.56441,153.00017 q 0,5.33531 -2.73606,8.42315 -2.73606,3.08784 -7.32873,3.08784 -4.63176,0 -7.36782,-3.08784 -2.71651,-3.08784 -2.71651,-8.42315 0,-5.33532 2.71651,-8.42315 2.73606,-3.10739 7.36782,-3.10739 4.59267,0 7.32873,3.10739 2.73606,3.08783 2.73606,8.42315 z m -3.7914,0 q 0,-4.24089 -1.66118,-6.29294 -1.66117,-2.07158 -4.61221,-2.07158 -2.99012,0 -4.6513,2.07158 -1.64164,2.05205 -1.64164,6.29294 0,4.10409 1.66118,6.23431 1.66118,2.11067 4.63176,2.11067 2.93149,0 4.59267,-2.09113 1.68072,-2.11068 1.68072,-6.25385 z m -0.19543,-21.84939 -5.33532,7.30919 h -2.91194 l 3.49824,-7.30919 z"
         style="stroke-width:1.00061584"
         id="path2441" />
      <path
         d="m 350.98427,163.90532 h -3.67414 v -30.40934 h 3.67414 z"
         style="stroke-width:1.00061584"
         id="path2443" />
      <path
         d="m 375.25702,163.90532 h -3.65459 v -2.32565 q -0.48858,0.33223 -1.32895,0.93808 -0.82081,0.58629 -1.60254,0.93807 -0.91854,0.4495 -2.11068,0.74265 -1.19214,0.31269 -2.79469,0.31269 -2.95103,0 -5.00308,-1.95433 -2.05204,-1.95432 -2.05204,-4.98353 0,-2.482 1.05534,-4.00638 1.07488,-1.54391 3.04875,-2.42336 1.99341,-0.87945 4.7881,-1.19214 2.79469,-0.31269 5.99979,-0.46904 v -0.56676 q 0,-1.25077 -0.4495,-2.07158 -0.42995,-0.82082 -1.25077,-1.28986 -0.78173,-0.4495 -1.87615,-0.60584 -1.09443,-0.15635 -2.28657,-0.15635 -1.4462,0 -3.22464,0.39087 -1.77844,0.37132 -3.67413,1.09442 h -0.19544 v -3.73276 q 1.07488,-0.29315 3.10738,-0.64493 2.03251,-0.35178 4.00638,-0.35178 2.3061,0 4.00637,0.39086 1.71981,0.37133 2.97058,1.28986 1.23122,0.89899 1.87615,2.32565 0.64493,1.42666 0.64493,3.53733 z m -3.65459,-5.3744 v -6.07796 q -1.68072,0.0977 -3.96729,0.29315 -2.26702,0.19543 -3.59596,0.56675 -1.58301,0.4495 -2.56017,1.40712 -0.97716,0.93808 -0.97716,2.59925 0,1.87616 1.13351,2.83378 1.13351,0.93808 3.45916,0.93808 1.93478,0 3.53733,-0.74265 1.60255,-0.76219 2.97058,-1.81752 z"
         style="stroke-width:1.00061584"
         id="path2445" />
      <path
         d="m 394.11628,137.05285 h -0.19543 q -0.60584,-0.17589 -1.58301,-0.35178 -0.97716,-0.19543 -1.71981,-0.19543 -2.36473,0 -3.43961,1.05534 -1.05534,1.03579 -1.05534,3.77185 v 0.74265 h 6.62517 v 3.08783 h -6.50791 v 18.74201 h -3.67414 v -18.74201 h -2.48199 v -3.08783 h 2.48199 v -0.7231 q 0,-3.88912 1.93479,-5.9607 1.93478,-2.09114 5.58938,-2.09114 1.23122,0 2.20839,0.11726 0.9967,0.11726 1.81752,0.27361 z"
         style="stroke-width:1.00061584"
         id="path2447" />
      <path
         d="m 414.53901,163.90532 h -3.67413 v -2.42337 q -1.85661,1.46575 -3.55688,2.24748 -1.70026,0.78173 -3.75231,0.78173 -3.43962,0 -5.35486,-2.09113 -1.91524,-2.11067 -1.91524,-6.17568 v -14.16887 h 3.67414 V 154.505 q 0,1.66118 0.15634,2.85332 0.15635,1.1726 0.66448,2.01296 0.52766,0.8599 1.36803,1.25077 0.84036,0.39086 2.44291,0.39086 1.42665,0 3.10738,-0.74264 1.70026,-0.74265 3.16601,-1.8957 v -16.29909 h 3.67413 z"
         style="stroke-width:1.00061584"
         id="path2449" />
      <path
         d="m 435.39169,146.08185 h -0.19543 q -0.82082,-0.19543 -1.60255,-0.27361 -0.76219,-0.0977 -1.81753,-0.0977 -1.70026,0 -3.28327,0.76218 -1.583,0.74265 -3.04875,1.93479 v 15.49782 h -3.67414 v -21.82984 h 3.67414 v 3.22464 q 2.18885,-1.7589 3.85003,-2.482 1.68072,-0.74264 3.42007,-0.74264 0.95762,0 1.38757,0.0586 0.42996,0.0391 1.28986,0.17589 z"
         style="stroke-width:1.00061584"
         id="path2451" />
    </g>
  </g>
  <g
     id="g126"
     inkscape:groupmode="layer"
     inkscape:label="newlayer" />
  <g
     id="g1208"
     inkscape:groupmode="layer"
     inkscape:label="newlayer" />
  <g
     id="g1370"
     inkscape:groupmode="layer"
     inkscape:label="newlayer" />
  <g
     id="g1723"
     inkscape:groupmode="layer"
     inkscape:label="newlayer" />
</svg>
